<?xml version="1.0" standalone="no"?>
<!DOCTYPE svg PUBLIC "-//W3C//DTD SVG 20010904//EN"
 "http://www.w3.org/TR/2001/REC-SVG-20010904/DTD/svg10.dtd">
<svg version="1.0" xmlns="http://www.w3.org/2000/svg"
 width="900.000000pt" height="900.000000pt" viewBox="0 0 900.000000 900.000000"
 preserveAspectRatio="xMidYMid meet">
<metadata>
Created by potrace 1.14, written by Peter Selinger 2001-2017
</metadata>
<g transform="translate(0.000000,900.000000) scale(0.100000,-0.100000)"
fill="#000000" stroke="none">
<path d="M3120 6399 c0 -5 -6 -6 -14 -3 -21 8 -133 -34 -195 -73 -108 -69
-201 -191 -231 -303 -19 -71 -22 -90 -24 -173 -2 -118 23 -175 91 -208 l33
-15 -35 -55 c-19 -30 -35 -60 -35 -66 0 -7 -4 -13 -10 -13 -5 0 -13 -12 -16
-27 -4 -16 -10 -30 -14 -33 -6 -5 -70 -155 -74 -175 -2 -5 -10 -34 -19 -64
-39 -127 -62 -289 -60 -431 1 -67 4 -106 18 -205 9 -66 48 -195 83 -275 l37
-85 2 -570 c0 -313 4 -581 7 -595 3 -14 8 -38 12 -55 15 -74 79 -181 143 -242
57 -55 153 -116 201 -129 8 -2 35 -9 60 -15 51 -14 2860 -20 2940 -7 67 11 81
14 130 34 103 40 220 142 265 230 11 21 24 42 28 45 5 3 8 8 7 10 -1 2 1 11 4
19 21 56 33 136 35 232 2 107 3 112 29 132 29 22 136 129 163 163 80 99 178
292 204 399 35 145 42 204 42 348 l0 154 35 35 c30 30 35 41 34 77 -2 57 -55
112 -93 98 -6 -3 -38 112 -50 177 -3 17 -9 35 -12 40 -4 6 -13 30 -20 55 -8
25 -19 59 -27 75 -37 85 -42 72 72 185 57 58 104 110 104 118 0 7 -7 15 -16
19 -11 4 -46 -24 -114 -92 l-98 -98 -16 32 -16 31 49 50 c31 31 48 56 44 65
-9 24 -29 17 -74 -25 l-43 -39 -43 77 c-51 88 -114 185 -125 190 -5 2 -8 8 -8
13 0 5 -6 17 -14 26 -8 10 -42 52 -75 93 l-61 75 32 13 c78 32 96 72 96 199 0
86 -14 175 -35 223 -3 8 -7 17 -8 20 -3 15 -41 80 -64 110 -34 46 -77 86 -126
118 -22 15 -42 29 -45 32 -12 12 -60 31 -125 49 -68 18 -127 19 -1518 19 -796
0 -1447 -4 -1447 -9z"/>
<path d="M2186 6233 c-38 -37 -46 -63 -20 -63 16 0 84 64 84 79 0 24 -31 16
-64 -16z"/>
<path d="M2241 6156 c-107 -108 -122 -128 -101 -141 10 -6 240 216 240 233 0
34 -38 9 -139 -92z"/>
<path d="M6760 5964 c-6 -14 -10 -29 -10 -34 0 -12 -64 -60 -81 -61 -8 0 -3
-6 11 -12 40 -19 59 -39 71 -74 6 -18 15 -33 20 -33 5 0 8 3 7 8 -5 25 32 71
77 95 18 10 23 16 14 17 -35 0 -99 81 -91 113 5 19 -10 4 -18 -19z"/>
<path d="M2250 5560 c0 -48 -41 -103 -92 -125 l-31 -13 38 -18 c32 -15 76 -68
81 -96 1 -5 3 -10 4 -13 1 -3 3 -9 4 -14 3 -21 12 -18 14 5 4 51 63 124 101
124 6 0 11 5 11 10 0 6 -6 10 -13 10 -31 0 -96 80 -99 123 -3 31 -18 37 -18 7z"/>
<path d="M1995 4672 c-81 -18 -125 -117 -85 -193 36 -66 122 -89 187 -49 84
51 85 170 3 222 -28 18 -74 27 -105 20z m85 -70 c13 -11 23 -31 25 -54 7 -75
-90 -115 -137 -57 -42 50 -6 129 58 129 17 0 42 -8 54 -18z"/>
<path d="M7149 3882 c-30 -32 -59 -62 -63 -69 -7 -13 119 -143 138 -143 14 0
122 104 134 128 7 13 -5 30 -54 77 -34 33 -71 61 -81 62 -10 0 -42 -23 -74
-55z m112 -41 c16 -16 29 -33 29 -36 0 -7 -59 -65 -66 -65 -9 0 -64 58 -64 68
0 10 56 62 67 62 2 0 18 -13 34 -29z"/>
<path d="M2135 3709 c-90 -89 -154 -160 -153 -168 8 -41 42 -18 188 126 146
144 170 178 133 191 -7 2 -83 -65 -168 -149z"/>
<path d="M2207 3603 c-50 -52 -55 -64 -33 -82 10 -9 24 -1 64 37 55 52 69 85
37 90 -13 2 -37 -14 -68 -45z"/>
<path d="M6861 3015 c-146 -147 -171 -178 -161 -190 7 -8 19 -15 28 -15 24 0
354 336 350 357 -9 47 -43 23 -217 -152z"/>
<path d="M6949 2900 l-64 -62 24 -20 24 -19 59 58 c39 39 58 65 56 78 -6 37
-35 27 -99 -35z"/>
</g>
</svg>
